<svg width="28" height="36" viewBox="0 0 28 36" fill="none" xmlns="http://www.w3.org/2000/svg">
<g clip-path="url(#clip0_32_206)">
<path d="M20.1515 27.2727C20.267 27.2223 20.3933 27.2015 20.5188 27.2122C20.6444 27.2229 20.7653 27.2647 20.8706 27.3339C20.9759 27.4031 21.0623 27.4975 21.1219 27.6085C21.1816 27.7195 21.2126 27.8437 21.2121 27.9697V35.2121C21.2115 35.3362 21.1804 35.4582 21.1216 35.5675C21.0628 35.6767 20.978 35.7699 20.8748 35.8387C20.7715 35.9075 20.653 35.9499 20.5295 35.9622C20.406 35.9745 20.2814 35.9562 20.1667 35.9091L14.7576 33.7879C14.0331 33.4971 13.2244 33.4971 12.5 33.7879L7.10607 35.9545C6.99011 36.0022 6.86413 36.0203 6.73944 36.0073C6.61474 35.9943 6.49523 35.9505 6.39161 35.88C6.288 35.8094 6.20352 35.7142 6.14575 35.6029C6.08798 35.4916 6.05872 35.3678 6.06061 35.2424V28C6.05496 27.8714 6.08215 27.7436 6.13961 27.6284C6.19707 27.5133 6.2829 27.4147 6.38903 27.3419C6.49515 27.2692 6.61806 27.2246 6.74616 27.2125C6.87426 27.2004 7.00334 27.2211 7.12122 27.2727C9.15426 28.2494 11.3809 28.7565 13.6364 28.7565C15.8919 28.7565 18.1185 28.2494 20.1515 27.2727ZM27.2727 13.6364C27.2727 16.3334 26.473 18.9698 24.9746 21.2123C23.4762 23.4548 21.3465 25.2026 18.8548 26.2347C16.3631 27.2668 13.6212 27.5369 10.976 27.0107C8.33085 26.4845 5.90108 25.1858 3.994 23.2787C2.08693 21.3716 0.788187 18.9419 0.262025 16.2967C-0.264137 13.6515 0.00590845 10.9097 1.03801 8.41795C2.07012 5.92623 3.81792 3.79652 6.06041 2.29814C8.3029 0.799759 10.9394 0 13.6364 0C17.253 0 20.7214 1.43668 23.2787 3.994C25.836 6.55131 27.2727 10.0198 27.2727 13.6364ZM19.2576 9.5303C18.9737 9.2481 18.5897 9.08971 18.1894 9.08971C17.7891 9.08971 17.4051 9.2481 17.1212 9.5303L12.1212 14.5303L10.1667 12.5606C9.88136 12.2753 9.4944 12.115 9.09091 12.115C8.68743 12.115 8.30047 12.2753 8.01516 12.5606C7.72985 12.8459 7.56956 13.2329 7.56956 13.6364C7.56956 14.0399 7.72985 14.4268 8.01516 14.7121L11.0455 17.7424C11.3293 18.0246 11.7134 18.183 12.1136 18.183C12.5139 18.183 12.8979 18.0246 13.1818 17.7424L19.2424 11.6818C19.3854 11.542 19.4993 11.3752 19.5776 11.1911C19.6558 11.007 19.6968 10.8092 19.6982 10.6092C19.6996 10.4092 19.6614 10.2109 19.5858 10.0257C19.5101 9.84052 19.3986 9.67215 19.2576 9.5303Z" fill="#0A043C"/>
</g>
<defs>
<clipPath id="clip0_32_206">
<rect width="27.2727" height="36" fill="white"/>
</clipPath>
</defs>
</svg>
