<svg width="24" height="18" viewBox="0 0 24 18" fill="none" xmlns="http://www.w3.org/2000/svg">
<path d="M21 3H17.44L16.9 1.37C16.7675 0.970891 16.5126 0.623688 16.1716 0.377741C15.8305 0.131795 15.4205 -0.000381085 15 8.25295e-07H9C8.57948 -0.000381085 8.16954 0.131795 7.82845 0.377741C7.48736 0.623688 7.23246 0.970891 7.1 1.37L6.56 3H3C2.20435 3 1.44129 3.31607 0.87868 3.87868C0.31607 4.44129 0 5.20435 0 6L0 15C0 15.7957 0.31607 16.5587 0.87868 17.1213C1.44129 17.6839 2.20435 18 3 18H21C21.7956 18 22.5587 17.6839 23.1213 17.1213C23.6839 16.5587 24 15.7957 24 15V6C24 5.20435 23.6839 4.44129 23.1213 3.87868C22.5587 3.31607 21.7956 3 21 3ZM12 14C11.3606 13.9996 10.7306 13.8459 10.1628 13.5519C9.595 13.2578 9.10599 12.8319 8.73675 12.3099C8.36751 11.7878 8.12879 11.1849 8.04062 10.5516C7.95245 9.91826 8.01739 9.27304 8.23 8.67C8.26749 8.53848 8.33156 8.41604 8.41826 8.31026C8.50495 8.20448 8.61242 8.11761 8.73402 8.05502C8.85562 7.99242 8.98876 7.95544 9.12523 7.94635C9.26169 7.93726 9.39856 7.95626 9.52739 8.00217C9.65622 8.04808 9.77426 8.11993 9.87422 8.21327C9.97417 8.30662 10.0539 8.41948 10.1085 8.54487C10.1631 8.67026 10.1914 8.80552 10.1917 8.94228C10.1919 9.07905 10.1641 9.21441 10.11 9.34C9.97003 9.7404 9.96098 10.1749 10.0842 10.5808C10.2073 10.9867 10.4564 11.3429 10.7953 11.598C11.1342 11.853 11.5454 11.9938 11.9695 11.9998C12.3936 12.0058 12.8087 11.8769 13.1547 11.6315C13.5007 11.3862 13.7598 11.0372 13.8945 10.635C14.0291 10.2328 14.0325 9.79818 13.9039 9.39396C13.7754 8.98974 13.5217 8.63685 13.1794 8.38628C12.8372 8.13571 12.4242 8.00043 12 8C11.7348 8 11.4804 7.89464 11.2929 7.70711C11.1054 7.51957 11 7.26522 11 7C11 6.73478 11.1054 6.48043 11.2929 6.29289C11.4804 6.10536 11.7348 6 12 6C13.0609 6 14.0783 6.42143 14.8284 7.17157C15.5786 7.92172 16 8.93913 16 10C16 11.0609 15.5786 12.0783 14.8284 12.8284C14.0783 13.5786 13.0609 14 12 14Z" fill="#FF794C"/>
</svg>
