<svg width="18" height="13" viewBox="0 0 18 13" fill="none" xmlns="http://www.w3.org/2000/svg">
<path d="M15.75 -1H2.25C1.65326 -1 1.08097 -0.762947 0.65901 -0.34099C0.237053 0.0809666 0 0.653263 0 1.25L0 10.25C0 10.8467 0.237053 11.419 0.65901 11.841C1.08097 12.2629 1.65326 12.5 2.25 12.5H15.75C16.3467 12.5 16.919 12.2629 17.341 11.841C17.7629 11.419 18 10.8467 18 10.25V1.25C18 0.653263 17.7629 0.0809666 17.341 -0.34099C16.919 -0.762947 16.3467 -1 15.75 -1V-1ZM16.23 1.91L10.44 6.725C10.0357 7.06175 9.52617 7.24616 9 7.24616C8.47383 7.24616 7.9643 7.06175 7.56 6.725L1.77 1.91C1.63373 1.77821 1.55242 1.59971 1.54242 1.4104C1.53243 1.22109 1.5945 1.03502 1.71614 0.889623C1.83778 0.744223 2.00997 0.650282 2.19807 0.626697C2.38617 0.603112 2.57623 0.651633 2.73 0.7625L8.52 5.5775C8.65477 5.68975 8.82461 5.75122 9 5.75122C9.17539 5.75122 9.34523 5.68975 9.48 5.5775L15.27 0.7625C15.4232 0.635196 15.6206 0.57395 15.8189 0.592235C16.0173 0.610519 16.2002 0.706838 16.3275 0.86C16.4548 1.01316 16.5161 1.21062 16.4978 1.40894C16.4795 1.60726 16.3832 1.7902 16.23 1.9175V1.91Z" fill="white"/>
</svg>
