<svg width="28" height="36" viewBox="0 0 28 36" fill="none" xmlns="http://www.w3.org/2000/svg">
<g clip-path="url(#clip0_32_176)">
<path d="M12.7767 35.6736L10.8883 34.1508C7.50601 31.5202 4.76755 28.1535 2.8809 24.3063C0.994256 20.4591 0.00901819 16.2326 7.11132e-07 11.9477V7.92744C-0.000402482 7.33729 0.170652 6.75974 0.492369 6.265C0.814085 5.77026 1.27261 5.37964 1.81218 5.14064L13.0812 0.130482C13.2755 0.0444463 13.4855 0 13.698 0C13.9104 0 14.1205 0.0444463 14.3147 0.130482L25.599 5.14064C26.1386 5.37964 26.5971 5.77026 26.9188 6.265C27.2405 6.75974 27.4116 7.33729 27.4112 7.92744V11.9477C27.4114 16.2429 26.4306 20.4814 24.5436 24.3398C22.6566 28.1983 19.9133 31.5748 16.5228 34.2117L14.6345 35.7345C14.3616 35.9309 14.0313 36.0315 13.6952 36.0204C13.3591 36.0094 13.0362 35.8875 12.7767 35.6736Z" fill="#0A043C"/>
<path fill-rule="evenodd" clip-rule="evenodd" d="M19.6805 14.3195C20.1065 14.7455 20.1065 15.4363 19.6805 15.8623L13.135 22.4078C12.9304 22.6123 12.653 22.7273 12.3636 22.7273C12.0743 22.7273 11.7968 22.6123 11.5922 22.4078L8.31952 19.135C7.89349 18.709 7.89349 18.0183 8.31952 17.5922C8.74555 17.1662 9.43627 17.1662 9.8623 17.5922L12.3636 20.0936L18.1377 14.3195C18.5637 13.8935 19.2545 13.8935 19.6805 14.3195Z" fill="white"/>
</g>
<defs>
<clipPath id="clip0_32_176">
<rect width="27.4112" height="36" fill="white"/>
</clipPath>
</defs>
</svg>
