<svg width="36" height="34" viewBox="0 0 36 34" fill="none" xmlns="http://www.w3.org/2000/svg">
<g clip-path="url(#clip0_32_192)">
<path d="M35.0215 20.867V25.2446C35.028 25.955 34.7751 26.6433 34.3104 27.1806C33.8456 27.7179 33.2009 28.0672 32.497 28.1631C32.3899 29.7439 31.6873 31.2253 30.531 32.3086C29.3746 33.3918 27.8506 33.9962 26.2661 34H18.97C18.4668 34 17.9843 33.8001 17.6286 33.4444C17.2728 33.0886 17.073 32.6061 17.073 32.103V29.6223C17.073 29.1192 17.2728 28.6367 17.6286 28.2809C17.9843 27.9252 18.4668 27.7253 18.97 27.7253C19.4731 27.7253 19.9556 27.9252 20.3113 28.2809C20.6671 28.6367 20.867 29.1192 20.867 29.6223V30.206H26.2661C26.8536 30.2031 27.421 29.9918 27.8673 29.6096C28.3135 29.2275 28.6097 28.6994 28.703 28.1193C28.0151 28.0043 27.3911 27.6467 26.9441 27.1114C26.4971 26.576 26.2565 25.8983 26.2661 25.2009V20.8232C26.2661 19.6621 26.7273 18.5487 27.5483 17.7277C28.3693 16.9067 29.4827 16.4455 30.6438 16.4455C31.2224 16.4455 31.7952 16.5601 32.3292 16.7829C32.8632 17.0056 33.3478 17.332 33.7548 17.7431C34.1619 18.1543 34.4835 18.6421 34.7009 19.1782C34.9183 19.7144 35.0272 20.2884 35.0215 20.867ZM17.9047 3.79399C20.3433 3.82734 22.7101 4.62355 24.673 6.07085C26.6359 7.51814 28.0962 9.54384 28.8489 11.8635C29.0076 12.3415 29.3496 12.7368 29.7998 12.9626C30.25 13.1884 30.7714 13.2261 31.2494 13.0674C31.7273 12.9087 32.1227 12.5667 32.3484 12.1165C32.5742 11.6663 32.6119 11.1449 32.4532 10.667C31.4586 7.58455 29.5171 4.89437 26.9051 2.97923C24.2931 1.06409 21.1436 0.0215639 17.9047 0C13.7905 0.0538683 9.86491 1.73406 6.98572 4.6734C4.10652 7.61275 2.50785 11.5723 2.53906 15.6867V16.533C1.83999 16.6247 1.19774 16.9663 0.730997 17.4947C0.264259 18.0232 0.00459462 18.7027 0 19.4077L0 23.7854C0 24.9464 0.461219 26.0599 1.28219 26.8809C2.10317 27.7019 3.21665 28.1631 4.37768 28.1631C5.53872 28.1631 6.6522 27.7019 7.47317 26.8809C8.29415 26.0599 8.75537 24.9464 8.75537 23.7854V19.4077C8.76437 18.7082 8.52179 18.0287 8.07183 17.493C7.62186 16.9574 6.99444 16.6011 6.30386 16.4893V15.7159C6.26874 12.5987 7.46949 9.59456 9.64349 7.3604C11.8175 5.12624 14.7878 3.84395 17.9047 3.79399Z" fill="#0A043C"/>
</g>
<defs>
<clipPath id="clip0_32_192">
<rect width="35.0215" height="34" fill="white"/>
</clipPath>
</defs>
</svg>
