<svg width="24" height="18" viewBox="0 0 24 18" fill="none" xmlns="http://www.w3.org/2000/svg">
<path d="M22 0C21.7348 0 21.4804 0.105357 21.2929 0.292893C21.1054 0.48043 21 0.734784 21 1C21 1.26522 20.8946 1.51957 20.7071 1.70711C20.5196 1.89464 20.2652 2 20 2C19.7348 2 19.4804 1.89464 19.2929 1.70711C19.1054 1.51957 19 1.26522 19 1C19 0.734784 18.8946 0.48043 18.7071 0.292893C18.5196 0.105357 18.2652 0 18 0C17.7348 0 17.4804 0.105357 17.2929 0.292893C17.1054 0.48043 17 0.734784 17 1C17 1.26522 16.8946 1.51957 16.7071 1.70711C16.5196 1.89464 16.2652 2 16 2C15.7348 2 15.4804 1.89464 15.2929 1.70711C15.1054 1.51957 15 1.26522 15 1C15 0.734784 14.8946 0.48043 14.7071 0.292893C14.5196 0.105357 14.2652 0 14 0C13.7348 0 13.4804 0.105357 13.2929 0.292893C13.1054 0.48043 13 0.734784 13 1C13 1.26522 12.8946 1.51957 12.7071 1.70711C12.5196 1.89464 12.2652 2 12 2C11.7348 2 11.4804 1.89464 11.2929 1.70711C11.1054 1.51957 11 1.26522 11 1C11 0.734784 10.8946 0.48043 10.7071 0.292893C10.5196 0.105357 10.2652 0 10 0C9.73478 0 9.48043 0.105357 9.29289 0.292893C9.10536 0.48043 9 0.734784 9 1C9 1.26522 8.89464 1.51957 8.70711 1.70711C8.51957 1.89464 8.26522 2 8 2C7.73478 2 7.48043 1.89464 7.29289 1.70711C7.10536 1.51957 7 1.26522 7 1C7 0.734784 6.89464 0.48043 6.70711 0.292893C6.51957 0.105357 6.26522 0 6 0C5.73478 0 5.48043 0.105357 5.29289 0.292893C5.10536 0.48043 5 0.734784 5 1C5 1.26522 4.89464 1.51957 4.70711 1.70711C4.51957 1.89464 4.26522 2 4 2C3.73478 2 3.48043 1.89464 3.29289 1.70711C3.10536 1.51957 3 1.26522 3 1C3 0.734784 2.89464 0.48043 2.70711 0.292893C2.51957 0.105357 2.26522 0 2 0C1.46957 0 0.960859 0.210714 0.585786 0.585786C0.210714 0.960859 0 1.46957 0 2L0 16C0 16.5304 0.210714 17.0391 0.585786 17.4142C0.960859 17.7893 1.46957 18 2 18C2.26522 18 2.51957 17.8946 2.70711 17.7071C2.89464 17.5196 3 17.2652 3 17C3 16.7348 3.10536 16.4804 3.29289 16.2929C3.48043 16.1054 3.73478 16 4 16C4.26522 16 4.51957 16.1054 4.70711 16.2929C4.89464 16.4804 5 16.7348 5 17C5 17.2652 5.10536 17.5196 5.29289 17.7071C5.48043 17.8946 5.73478 18 6 18C6.26522 18 6.51957 17.8946 6.70711 17.7071C6.89464 17.5196 7 17.2652 7 17C7 16.7348 7.10536 16.4804 7.29289 16.2929C7.48043 16.1054 7.73478 16 8 16C8.26522 16 8.51957 16.1054 8.70711 16.2929C8.89464 16.4804 9 16.7348 9 17C9 17.2652 9.10536 17.5196 9.29289 17.7071C9.48043 17.8946 9.73478 18 10 18C10.2652 18 10.5196 17.8946 10.7071 17.7071C10.8946 17.5196 11 17.2652 11 17C11 16.7348 11.1054 16.4804 11.2929 16.2929C11.4804 16.1054 11.7348 16 12 16C12.2652 16 12.5196 16.1054 12.7071 16.2929C12.8946 16.4804 13 16.7348 13 17C13 17.2652 13.1054 17.5196 13.2929 17.7071C13.4804 17.8946 13.7348 18 14 18C14.2652 18 14.5196 17.8946 14.7071 17.7071C14.8946 17.5196 15 17.2652 15 17C15 16.7348 15.1054 16.4804 15.2929 16.2929C15.4804 16.1054 15.7348 16 16 16C16.2652 16 16.5196 16.1054 16.7071 16.2929C16.8946 16.4804 17 16.7348 17 17C17 17.2652 17.1054 17.5196 17.2929 17.7071C17.4804 17.8946 17.7348 18 18 18C18.2652 18 18.5196 17.8946 18.7071 17.7071C18.8946 17.5196 19 17.2652 19 17C19 16.7348 19.1054 16.4804 19.2929 16.2929C19.4804 16.1054 19.7348 16 20 16C20.2652 16 20.5196 16.1054 20.7071 16.2929C20.8946 16.4804 21 16.7348 21 17C21 17.2652 21.1054 17.5196 21.2929 17.7071C21.4804 17.8946 21.7348 18 22 18C22.5304 18 23.0391 17.7893 23.4142 17.4142C23.7893 17.0391 24 16.5304 24 16V2C24 1.46957 23.7893 0.960859 23.4142 0.585786C23.0391 0.210714 22.5304 0 22 0V0ZM15.64 9.85L10.53 13C10.3821 13.0927 10.2124 13.1451 10.0379 13.1519C9.86347 13.1588 9.69025 13.1198 9.53552 13.0389C9.38079 12.958 9.24994 12.838 9.15599 12.6908C9.06204 12.5436 9.00826 12.3744 9 12.2V5.8C9.00826 5.62559 9.06204 5.45638 9.15599 5.30921C9.24994 5.16204 9.38079 5.04203 9.53552 4.96113C9.69025 4.88022 9.86347 4.84124 10.0379 4.84806C10.2124 4.85488 10.3821 4.90726 10.53 5L15.64 8.2C15.7741 8.29183 15.8837 8.41495 15.9595 8.5587C16.0353 8.70245 16.0749 8.8625 16.0749 9.025C16.0749 9.1875 16.0353 9.34755 15.9595 9.4913C15.8837 9.63505 15.7741 9.75817 15.64 9.85Z" fill="#1787FB"/>
</svg>
